Coordinates
nRows=204
nColumns=2
inDegrees=yes
endheader
time	ankle_angle_r	
3.12702	  9.162391	
3.16028	  9.145394	
3.19355	  9.138552	
3.22681	  9.142919	
3.26008	  9.151260	
3.29335	  9.158445	
3.32661	  9.162681	
3.35988	  9.162418	
3.39315	  9.160088	
3.42641	  9.159697	
3.45968	  9.160947	
3.49294	  9.161003	
3.52621	  9.159723	
3.55948	  9.161608	
3.59274	  9.169119	
3.62601	  9.176630	
3.65927	  9.177941	
3.69254	  9.174447	
3.72581	  9.171999	
3.75907	  9.174770	
3.79234	  9.181600	
3.8256	  9.187673	
3.85887	  9.191372	
3.89214	  9.194351	
3.9254	  9.196399	
3.95867	  9.196600	
3.99194	  9.193761	
4.0252	  9.186467	
4.05847	  9.178331	
4.09173	  9.174157	
4.125	  9.171664	
4.15827	  9.167456	
4.19153	  9.164798	
4.2248	  9.169067	
4.25806	  9.180660	
4.29133	  9.193508	
4.3246	  9.199054	
4.35786	  9.194474	
4.39113	  9.186612	
4.4244	  9.184685	
4.45766	  9.190320	
4.49093	  9.195745	
4.52419	  9.193303	
4.55746	  9.187331	
4.59073	  9.186136	
4.62399	  9.185850	
4.65726	  9.179206	
4.69052	  9.168101	
4.72379	  9.158157	
4.75706	  9.155447	
4.79032	  9.161864	
4.82359	  9.168962	
4.85685	  9.168090	
4.89012	  9.160361	
4.92339	  9.153386	
4.95665	  9.151547	
4.98992	  9.148149	
5.02319	  9.135864	
5.05645	  9.120672	
5.08972	  9.112427	
5.12298	  9.113786	
5.15625	  9.123876	
5.18952	  9.137827	
5.22278	  9.147036	
5.25605	  9.148390	
5.28931	  9.145320	
5.32258	  9.142097	
5.35585	  9.140959	
5.38911	  9.138933	
5.42238	  9.132119	
5.45565	  9.123472	
5.48891	  9.117783	
5.52218	  9.114460	
5.55544	  9.111263	
5.58871	  9.110631	
5.62198	  9.116322	
5.65524	  9.124324	
5.68851	  9.126666	
5.72177	  9.124131	
5.75504	  9.120712	
5.78831	  9.111895	
5.82157	  9.099455	
5.85484	  9.099410	
5.8881	  9.114585	
5.92137	  9.127278	
5.95464	  9.128152	
5.9879	  9.125602	
6.02117	  9.129623	
6.05444	  9.140900	
6.0877	  9.149248	
6.12097	  9.143847	
6.15423	  9.128426	
6.1875	  9.117116	
6.22077	  9.118357	
6.25403	  9.130669	
6.2873	  9.145500	
6.32056	  9.151923	
6.35383	  9.147151	
6.3871	  9.139181	
6.42036	  9.135997	
6.45363	  9.138708	
6.4869	  9.144730	
6.52016	  9.152515	
6.55343	  9.161456	
6.58669	  9.168862	
6.61996	  9.172939	
6.65323	  9.176365	
6.68649	  9.180686	
6.71976	  9.183434	
6.75302	  9.182167	
6.78629	  9.177127	
6.81956	  9.172509	
6.85282	  9.170738	
6.88609	  9.167753	
6.91935	  9.162369	
6.95262	  9.160309	
6.98589	  9.165716	
7.01915	  9.176404	
7.05242	  9.184554	
7.08569	  9.184055	
7.11895	  9.178938	
7.15222	  9.176246	
7.18548	  9.176401	
7.21875	  9.177306	
7.25202	  9.177634	
7.28528	  9.176617	
7.31855	  9.175144	
7.35181	  9.171290	
7.38508	  9.162725	
7.41835	  9.156973	
7.45161	  9.162252	
7.48488	  9.172415	
7.51815	  9.178437	
7.55141	  9.180784	
7.58468	  9.180066	
7.61794	  9.175931	
7.65121	  9.172853	
7.68448	  9.173093	
7.71774	  9.175636	
7.75101	  9.179375	
7.78427	  9.180129	
7.81754	  9.176330	
7.85081	  9.173354	
7.88407	  9.175320	
7.91734	  9.180036	
7.9506	  9.181802	
7.98387	  9.178926	
8.01714	  9.176856	
8.0504	  9.176957	
8.08367	  9.173279	
8.11694	  9.165184	
8.1502	  9.157827	
8.18347	  9.154568	
8.21673	  9.156625	
8.25	  9.161036	
8.28327	  9.162740	
8.31653	  9.161956	
8.3498	  9.159766	
8.38306	  9.152865	
8.41633	  9.141992	
8.4496	  9.135553	
8.48286	  9.138409	
8.51613	  9.145242	
8.5494	  9.148741	
8.58266	  9.147012	
8.61593	  9.141298	
8.64919	  9.133256	
8.68246	  9.127658	
8.71573	  9.130789	
8.74899	  9.140244	
8.78226	  9.146504	
8.81552	  9.145764	
8.84879	  9.139430	
8.88206	  9.130452	
8.91532	  9.125570	
8.94859	  9.128665	
8.98185	  9.136518	
9.01512	  9.145022	
9.04839	  9.151176	
9.08165	  9.153671	
9.11492	  9.154746	
9.14819	  9.156217	
9.18145	  9.157636	
9.21472	  9.159255	
9.24798	  9.160615	
9.28125	  9.160706	
9.31452	  9.161659	
9.34778	  9.164305	
9.38105	  9.165271	
9.41431	  9.164203	
9.44758	  9.163768	
9.48085	  9.164401	
9.51411	  9.166208	
9.54738	  9.168062	
9.58065	  9.166589	
9.61391	  9.162061	
9.64718	  9.158927	
9.68044	  9.161025	
9.71371	  9.167360	
9.74698	  9.171716	
9.78024	  9.171163	
9.81351	  9.168356	
9.84677	  9.163422	
9.88004	  9.155241	
